<?xml version="1.0" standalone="no"?>
<!DOCTYPE svg PUBLIC "-//W3C//DTD SVG 1.1//EN" "http://www.w3.org/Graphics/SVG/1.1/DTD/svg11.dtd">
<svg xmlns="http://www.w3.org/2000/svg" id="Calque_1" data-name="Calque 1" viewBox="0 0 800 800" width="800" height="800"><defs><style>.cls-1{fill:#001a33;}.cls-2{fill:#a60303;}</style></defs><title>ALL_LEADERS_INITIATIVE_R_DARK_LOGO</title><path class="cls-1" d="M166.55,364.74l-2.25,20.79,10.33,5.73-1.18,10.9-49.16-27.75.85-7.89,53.89-16-1.17,10.83ZM158,366.79l-19.35,5.34,17.76,9.35Z"/><path class="cls-1" d="M143.54,296.27l39.9,16.39,6.09-14.81,8.05,3.31-9.92,24.15-48-19.7Z"/><path class="cls-1" d="M175.71,238.39l34.88,25.39L220,250.83l7,5.12-15.37,21.12-41.91-30.51Z"/><path class="cls-1" d="M260.72,161.45l21.61,37.34,13.85-8,4.36,7.53-22.6,13.08-26-44.87Z"/><path class="cls-1" d="M342.42,138.53l-18,5,3.1,11.17,17.23-4.8,2.33,8.4-17.23,4.79,3.79,13.63,18-5,2.33,8.4-27.72,7.7-13.88-50,27.72-7.71Z"/><path class="cls-1" d="M475.77,134.7c6.9,2.16,12.67,4.78,16.88,10.59,4.59,6.4,5.83,14.69,3.24,22.92s-8.23,14.29-16.2,16.84c-7.06,2.27-12.68,1.24-19.58-.92l-12.76-4,15.51-49.47ZM459.6,174.84l3,.93c2.45.77,7.84,2.3,13.12.53,4.82-1.59,8.62-5.93,10.27-11.2S487,154.19,484,150s-7.88-6.06-11.14-7.08l-3-.93Z"/><path class="cls-1" d="M562.23,187.35l-15.46-10.44-6.49,9.59,14.81,10-4.87,7.22-14.82-10-7.92,11.73,15.46,10.44-4.87,7.21L514.24,207l29-43,23.83,16.1Z"/><path class="cls-1" d="M610.06,221.34c4.61,5.46,5.54,9.45,5.55,12.6a14.75,14.75,0,0,1-5.6,11.44c-3.86,3.25-8.55,4.57-13.23,3.23a14.26,14.26,0,0,1-5.38-2.88l-6.27,26.43L577,262.55l7-24-.8-.95L567.3,251l-6.52-7.73,39.61-33.42ZM588.67,233l1.86,2.2c1.24,1.48,6.59,7.45,12.41,2.54s.83-11.07-.38-12.5l-1.95-2.31Z"/><path class="cls-1" d="M645.77,302.9a10.11,10.11,0,0,0,.62-9.54c-2.2-5-6-5.16-8.43-4.09a4.39,4.39,0,0,0-2.54,2.91c-.57,1.61-.44,3.43-.19,6.89.36,4.26.62,8.31-.51,11.7-1,3-3.32,6.32-8.15,8.46-9.24,4.09-18.53.21-22.88-9.59-3.87-8.75-.81-16.22,1.72-20.32l8.44,3.5a12.1,12.1,0,0,0-1.92,12.74c1.85,4.2,5.8,6.19,9.77,4.43a6,6,0,0,0,3.45-3.74c.85-2.5.52-5.75.24-8.86a25.19,25.19,0,0,1,.63-9.72,12.07,12.07,0,0,1,7.15-7.67c7-3.08,16-1.48,20.67,9a19.94,19.94,0,0,1,.4,15.89Z"/><path class="cls-1" d="M675.76,416,624,413.43l.18-3.42,51.78,2.54Z"/><path class="cls-1" d="M616.74,463l48.56,19.72-58.61,23.2,41.71,16.94L647.12,526l-49.28-20,58.6-23.19-41-16.65Z"/><path class="cls-1" d="M606.56,583.81l-39-34.13,2.25-2.58,39,34.13Z"/><path class="cls-1" d="M547.35,630.53l-26.59-40.85,2.86-1.87,26.59,40.85,11.27-7.33,1.7,2.6-25.41,16.54-1.7-2.6Z"/><path class="cls-1" d="M480.3,664.89l-15.37-49.52,3.26-1,15.38,49.52Z"/><path class="cls-1" d="M388.71,642.08l22.08,0,6.9-17h3.73l-21.78,53.44L378,625.07h3.74Zm1.25,3.11,9.74,24.56,9.85-24.58Z"/><path class="cls-1" d="M312.86,659.64l15.24-46.31,3.25,1.07-15.24,46.31,12.78,4.2-1,3-28.8-9.48,1-3Z"/><path class="cls-1" d="M244.18,629l28.91-43,2.85,1.91-28.92,43Z"/><path class="cls-1" d="M196,587.88,220.33,548l-43.45,16.72-2.37-2.87,53.37-20.08-29.52,49Z"/><path class="cls-1" d="M139.07,483.85l7.54,20.08,17.61-6.61-7.39-19.64,2.92-1.09,7.38,19.64,22.18-8.34-7.54-20.08,2.91-1.09L193.42,490,144.9,508.22,136.16,485Z"/><polygon class="cls-1" points="531.59 309.74 538.59 326.06 540.72 325.42 533.56 308.65 488.26 264.34 462.14 253.86 461.63 256.01 486.86 266.1 531.59 309.74"/><polygon class="cls-1" points="548.96 344.7 547.08 345.86 556.22 367.18 557 429.67 548.94 449.83 550.9 450.88 559.16 430.29 559.24 430.08 558.46 366.93 548.96 344.7"/><polygon class="cls-1" points="250.1 456.04 251.98 454.88 242.84 433.57 242.06 371.08 250.12 350.91 248.16 349.86 239.9 370.45 239.82 370.66 240.6 433.82 250.1 456.04"/><polygon class="cls-1" points="267.47 491.01 260.47 474.69 258.34 475.33 265.5 492.09 310.8 536.4 336.92 546.89 337.44 544.73 312.2 534.65 267.47 491.01"/><polygon class="cls-1" points="255.17 338.28 265.26 313.05 308.9 268.32 325.22 261.32 324.57 259.18 307.81 266.34 263.5 311.64 253.02 337.76 255.17 338.28"/><polygon class="cls-1" points="366.34 243.68 428.83 242.9 448.99 250.96 450.04 249 429.45 240.74 429.24 240.66 366.09 241.45 343.86 250.94 345.02 252.82 366.34 243.68"/><polygon class="cls-1" points="543.89 462.47 533.8 487.7 490.16 532.43 473.84 539.43 474.49 541.57 491.25 534.41 535.56 489.1 546.04 462.98 543.89 462.47"/><polygon class="cls-1" points="432.73 557.06 370.23 557.84 350.07 549.78 349.02 551.74 369.61 560.01 369.82 560.09 432.98 559.3 455.2 549.81 454.04 547.92 432.73 557.06"/><polygon class="cls-1" points="326.83 298.65 326.84 298.65 326.84 298.64 326.83 298.65"/><path class="cls-1" d="M486,316.29c10.32,9.85,12.95,12.35,13.77,13,.36.65,1.67,3.53,3.42,7.44l2.17-.66c-3.68-8.26-3.81-8.34-4.09-8.43-.56-.44-7.26-6.83-13.73-13-18.73-17.87-21.08-20.11-21.85-20.38h0c-.53-.16-5.84-2.2-12.07-4.62l-.53,2.2c8.39,3.25,11,4.24,11.83,4.51C466.29,297.49,477.64,308.33,486,316.29Z"/><path class="cls-1" d="M434.77,516.59c-5.43,2.4-7.31,3.24-8,3.58-1.77.19-17.75.56-29.49.82-13.76.32-17.34.41-18.41.49-1.44-.43-12.29-4.61-22.15-8.43l-.79,2.09c19.67,7.63,22.28,8.62,22.86,8.62a.38.38,0,0,0,.17,0c.68-.08,9.68-.28,18.37-.48,30.08-.68,30.1-.7,30.37-1s3.73-1.7,8.22-3.69Z"/><path class="cls-1" d="M510.22,448.29c-5.06,13-6.36,16.42-6.7,17.46-1.09,1.37-11.92,12.71-19.87,21-9.89,10.37-12.39,13-13.08,13.82-.66.36-3.53,1.67-7.44,3.41l.66,2.18c8.25-3.68,8.34-3.82,8.43-4.1.45-.56,6.86-7.27,13-13.77,17.83-18.67,20.08-21,20.34-21.81h0c.2-.68,3.5-9.2,6.7-17.43.71-1.86,1.37-3.54,2-5.16l-2.09-.79C511.52,444.91,510.85,446.65,510.22,448.29Z"/><path class="cls-1" d="M521.36,372.17c-.21-.38-1.73-3.79-3.69-8.22l-1.92,1.19c2.4,5.44,3.25,7.31,3.58,8,.19,1.79.55,17.76.82,29.48.31,13.75.4,17.33.49,18.41-.27.91-2,5.58-4.28,11.39l2,1.06c3.89-10.1,4.53-11.93,4.5-12.53h0c-.08-.68-.29-9.68-.48-18.38C521.71,372.47,521.69,372.45,521.36,372.17Z"/><path class="cls-1" d="M277.7,428.58c.21.37,1.73,3.79,3.69,8.21l1.92-1.18c-2.4-5.43-3.24-7.3-3.58-8-.19-1.77-.55-17.63-.81-29.28-.32-13.94-.41-17.55-.5-18.62.28-.92,2.05-5.59,4.28-11.38l-2-1.07c-3.9,10.13-4.53,11.94-4.5,12.54h0c.08.69.29,9.79.49,18.58C277.36,428.28,277.37,428.3,277.7,428.58Z"/><path class="cls-1" d="M313.07,484.46c-10.32-9.85-12.95-12.35-13.77-13-.36-.64-1.67-3.52-3.42-7.43l-2.17.66c3.68,8.25,3.81,8.34,4.09,8.42.56.45,7.26,6.84,13.73,13,18.73,17.87,21.08,20.11,21.85,20.38h0c.53.15,5.84,2.2,12.07,4.61l.53-2.2c-8.39-3.24-11-4.23-11.83-4.51C332.77,503.25,321.42,492.42,313.07,484.46Z"/><path class="cls-1" d="M364.3,284.16c5.42-2.4,7.3-3.25,8-3.59,1.79-.19,17.76-.55,29.49-.82,13.76-.31,17.34-.4,18.41-.48,1.44.43,12.29,4.61,22.15,8.43l.79-2.1c-22.65-8.77-22.67-8.73-23-8.56-.68.07-9.67.28-18.37.48-30.08.68-30.09.7-30.37,1s-3.79,1.73-8.22,3.69Z"/><path class="cls-1" d="M288.81,352.55c5.08-13.11,6.39-16.52,6.73-17.56,1.09-1.36,11.92-12.7,19.87-21,9.89-10.36,12.39-13,13.08-13.82.65-.36,3.53-1.67,7.44-3.42l-.66-2.16c-6.84,3.06-8.1,3.71-8.43,4.09-.46.57-6.86,7.27-13,13.76-17.83,18.68-20.07,21-20.34,21.81h0c-.2.68-3.52,9.24-6.73,17.53l-2,5.05,2.09.8Z"/><path class="cls-1" d="M466.6,347.83l2.55-.77c-.78-.58-5.45-4.85-9.6-8.65-9.1-8.34-12.79-11.7-14.45-13.05l-.59,2.5c2.91,2.47,9.09,8.13,13.53,12.2C462.83,344.44,465.27,346.67,466.6,347.83Z"/><path class="cls-1" d="M483.6,399.43c.41,9.65.54,12.14.68,13-.07.36-.34,1.24-.73,2.41l2,1.08c1.14-3.37,1.06-3.58.92-3.87-.13-.7-.4-6.8-.64-12.69-.32-7.45-.54-12.23-.72-15.35L483,385.31C483.18,389.56,483.42,395.1,483.6,399.43Z"/><path class="cls-1" d="M384.47,317c4.26-.23,9.81-.46,14.14-.65,9.62-.41,12.11-.54,12.94-.67,1.45.25,10.86,3.67,17.8,6.2l.79-2.09c-18.26-6.66-18.45-6.55-19-6.32-.69.14-6.77.4-12.65.65-7.47.31-12.26.54-15.39.71Z"/><path class="cls-1" d="M321.44,369.32c3.37-9.23,4.21-11.61,4.4-12.44.83-1.32,8.34-9.52,13.35-15,4.4-4.8,6.63-7.26,7.8-8.59l-.77-2.55c-.62.83-4.89,5.49-8.68,9.63-13.92,15.2-13.91,15.43-13.88,16-.15.71-2.36,6.79-4.32,12.15l-.44,1.21,2.09.8Z"/><path class="cls-1" d="M314.78,388.35c.07-.36.34-1.24.73-2.41l-2-1.08c-1.14,3.36-1.05,3.58-.92,3.87.13.7.4,6.79.65,12.69.31,7.45.53,12.22.71,15.35l2.17-1.34c-.23-4.25-.46-9.78-.65-14.11C315.05,391.66,314.92,389.17,314.78,388.35Z"/><path class="cls-1" d="M332.46,452.92l-2.56.77c.78.56,5.47,4.86,9.64,8.68,9.08,8.31,12.76,11.66,14.42,13l.59-2.49c-2.9-2.46-9.07-8.11-13.5-12.16C336.24,456.32,333.79,454.08,332.46,452.92Z"/><path class="cls-1" d="M414.59,483.79c-4.26.23-9.8.47-14.14.65-9.62.41-12.11.54-12.94.68-1.45-.26-10.86-3.68-17.8-6.21l-.79,2.1c15.11,5.5,17.86,6.39,18.64,6.39a.69.69,0,0,0,.33-.08c.69-.13,6.77-.39,12.65-.64,7.47-.32,12.26-.54,15.39-.72Z"/><path class="cls-1" d="M477.62,431.43c-3.37,9.23-4.21,11.61-4.39,12.44-.84,1.31-8.35,9.52-13.36,15-4.39,4.8-6.63,7.26-7.8,8.6l.78,2.56c.56-.78,4.85-5.47,8.68-9.64,13.91-15.2,13.9-15.43,13.88-16,.14-.71,2.36-6.79,4.31-12.16.16-.42.3-.79.45-1.21l-2.1-.79Z"/><polygon class="cls-1" points="376.88 367.28 360.94 314.55 389.8 361.47 395.99 349.92 324.83 234.26 364.14 364.24 376.88 367.28"/><polygon class="cls-1" points="435.66 364.98 432.63 377.72 485.36 361.78 438.44 390.64 449.98 396.83 565.65 325.68 435.66 364.98"/><polygon class="cls-1" points="422.18 433.47 438.13 486.21 409.26 439.28 403.07 450.82 474.23 566.49 434.92 436.5 422.18 433.47"/><polygon class="cls-1" points="313.7 438.97 360.62 410.1 349.08 403.92 233.41 475.07 363.4 435.76 366.43 423.02 313.7 438.97"/><path class="cls-2" d="M385.58,369.35l14.55-27.17a58.33,58.33,0,0,0-44.54,20Z"/><path class="cls-2" d="M437.7,356.44l-7.15,30L457.73,401A58.31,58.31,0,0,0,437.7,356.44Z"/><path class="cls-2" d="M341.33,399.77a58.34,58.34,0,0,0,20,44.54l7.15-30Z"/><path class="cls-2" d="M413.48,431.4l-14.55,27.17a58.34,58.34,0,0,0,44.54-20Z"/><path class="cls-2" d="M388.29,176l11.28-28.17,11.3,28.22q5.69.3,11.29.87l-22.59-56.26L377,176.84Q382.61,176.29,388.29,176Z"/><polygon class="cls-1" points="385.58 369.35 203.59 325.99 399.53 400.37 473.92 204.43 385.58 369.35"/><polygon class="cls-1" points="413.48 431.4 595.47 474.76 399.53 400.37 325.14 596.32 413.48 431.4"/></svg>