<?xml version="1.0" encoding="utf-8"?>
<!-- Generator: Adobe Illustrator 27.9.0, SVG Export Plug-In . SVG Version: 6.00 Build 0)  -->
<svg version="1.0" id="Logo_secondaire" xmlns="http://www.w3.org/2000/svg" xmlns:xlink="http://www.w3.org/1999/xlink" x="0px"
	 y="0px" viewBox="0 0 750 200" style="enable-background:new 0 0 750 200;" xml:space="preserve">
<style type="text/css">
	.st0{fill:#F3B21A;}
	.st1{fill:#5444E3;}
	.st2{fill:#55CDC2;}
	.st3{fill:#FFFFFF;}
	.st4{fill:#FF5A3F;}
</style>
<g id="Logo_secondaire_-_couleurs">
	<g>
		<g>
			<circle class="st0" cx="116.5" cy="100.6" r="51.8"/>
			<path class="st1" d="M96.1,58.5C80.5,66,69.7,82,69.7,100.6c0,18.5,10.8,34.6,26.4,42.1c15.6-7.6,26.4-23.6,26.4-42.1
				S111.7,66.1,96.1,58.5z"/>
			<circle class="st2" cx="96.1" cy="80.2" r="51.8"/>
			<circle class="st2" cx="96.1" cy="121" r="51.8"/>
			<path class="st3" d="M96.1,74.2C77.6,74.2,61.5,85,54,100.6c7.6,15.6,23.6,26.4,42.1,26.4s34.6-10.8,42.1-26.4
				C130.6,85,114.6,74.2,96.1,74.2z"/>
			<circle class="st0" cx="75.7" cy="100.6" r="51.8"/>
			<circle class="st4" cx="111.5" cy="87.3" r="46.8"/>
			<circle class="st4" cx="80.6" cy="113.9" r="46.8"/>
			<path class="st3" d="M68.7,68.6c-6.9,15.9-4.7,35.1,7.4,49.2s30.7,19.2,47.5,14.8c6.9-15.9,4.7-35.1-7.4-49.2
				S85.4,64.2,68.7,68.6z"/>
		</g>
		<g>
			<path class="st1" d="M212.1,148.3V74.8h9.8v13.6l-1.9,12.5l1.9,12.7v34.7H212.1z M239.4,127.6c-3.9,0-7.5-0.8-10.6-2.5
				c-3.2-1.6-5.7-3.9-7.6-6.8c-1.9-2.9-2.9-6.2-3.2-9.9V92.9c0.2-3.8,1.3-7.1,3.2-10s4.5-5.1,7.6-6.8c3.2-1.6,6.7-2.5,10.5-2.5
				c4.7,0,9,1.2,12.8,3.6s6.8,5.6,9,9.7c2.2,4.1,3.3,8.7,3.3,13.7c0,5.1-1.1,9.7-3.3,13.7c-2.2,4.1-5.2,7.3-9,9.7
				C248.4,126.5,244.1,127.6,239.4,127.6z M237.7,118.4c3.3,0,6.1-0.8,8.6-2.3s4.4-3.6,5.8-6.3c1.4-2.7,2.1-5.7,2.1-9.2
				c0-3.4-0.7-6.5-2.1-9.1c-1.4-2.7-3.4-4.7-5.8-6.3c-2.5-1.5-5.3-2.3-8.6-2.3c-3.2,0-6,0.8-8.5,2.3s-4.4,3.6-5.8,6.3
				c-1.4,2.7-2.1,5.7-2.1,9.2c0,3.4,0.7,6.5,2,9.1c1.3,2.7,3.3,4.7,5.8,6.3C231.7,117.6,234.5,118.4,237.7,118.4z"/>
			<path class="st1" d="M275.6,126.6V74.8h9.8v51.8C285.4,126.6,275.6,126.6,275.6,126.6z M285.4,97.1l-3.7-1.7
				c0-6.6,1.5-11.9,4.6-15.8s7.5-5.9,13.2-5.9c2.6,0,5,0.5,7.1,1.4s4.1,2.4,5.9,4.5l-6.4,6.7c-1.1-1.2-2.3-2-3.6-2.5
				c-1.3-0.5-2.8-0.8-4.6-0.8c-3.6,0-6.6,1.2-8.9,3.5C286.6,88.8,285.4,92.3,285.4,97.1z"/>
			<path class="st1" d="M339.7,127.6c-4.8,0-9.1-1.2-12.9-3.5c-3.8-2.4-6.8-5.6-9.1-9.7c-2.2-4.1-3.3-8.7-3.3-13.7
				c0-5.1,1.1-9.7,3.3-13.7c2.2-4.1,5.2-7.3,9.1-9.7c3.8-2.4,8.1-3.6,12.9-3.6c3.9,0,7.4,0.8,10.5,2.5c3.1,1.6,5.6,3.9,7.5,6.8
				s2.9,6.2,3.2,10v15.6c-0.2,3.7-1.3,7-3.1,9.9c-1.9,2.9-4.3,5.2-7.5,6.8C347.2,126.8,343.6,127.6,339.7,127.6z M341.3,118.4
				c4.9,0,8.8-1.7,11.8-5s4.5-7.5,4.5-12.7c0-3.5-0.7-6.6-2.1-9.3c-1.4-2.7-3.3-4.8-5.7-6.3c-2.4-1.5-5.3-2.2-8.6-2.2
				c-3.3,0-6.2,0.8-8.7,2.3s-4.5,3.6-5.9,6.3c-1.4,2.7-2.1,5.7-2.1,9.1c0,3.5,0.7,6.6,2.1,9.2c1.4,2.7,3.4,4.7,5.9,6.3
				C335.2,117.6,338.1,118.4,341.3,118.4z M356.9,126.6v-14l1.9-12.7l-1.9-12.5V74.8h9.9v51.8C366.8,126.6,356.9,126.6,356.9,126.6z
				"/>
			<path class="st1" d="M402.6,125.7c-4.7,0-9-1.1-12.7-3.4s-6.7-5.4-8.9-9.3c-2.2-4-3.3-8.4-3.3-13.4c0-4.9,1.1-9.4,3.2-13.2
				c2.1-3.9,5.1-7,8.9-9.3s8-3.4,12.7-3.4c4.1,0,7.7,0.8,10.8,2.4c3.2,1.6,5.7,3.8,7.5,6.7c1.8,2.9,2.8,6.2,3.1,10.1v13.7
				c-0.2,3.8-1.3,7.1-3.1,10c-1.9,2.9-4.3,5.1-7.5,6.7C410.2,124.9,406.6,125.7,402.6,125.7z M402.6,149.3c-5.4,0-10.1-1-14.2-2.9
				c-4.1-2-7.4-4.7-9.9-8.3l6.4-6.4c2.1,2.7,4.6,4.7,7.5,6.2c2.9,1.4,6.4,2.1,10.4,2.1c5.2,0,9.4-1.4,12.5-4.2s4.7-6.6,4.7-11.3
				v-12.9l1.7-11.7L420,88.3V74.8h9.8v49.7c0,4.9-1.1,9.3-3.4,13s-5.5,6.7-9.6,8.7C412.7,148.3,408,149.3,402.6,149.3z M404.5,116.4
				c3.3,0,6.1-0.7,8.5-2.1s4.3-3.3,5.6-5.8c1.3-2.5,2-5.4,2-8.8c0-3.3-0.7-6.3-2-8.8s-3.2-4.5-5.7-5.9c-2.4-1.4-5.3-2.1-8.5-2.1
				c-3.3,0-6.1,0.7-8.6,2.1s-4.4,3.4-5.8,5.9s-2.1,5.4-2.1,8.7c0,3.3,0.7,6.2,2.1,8.7s3.4,4.5,5.9,5.9
				C398.4,115.7,401.3,116.4,404.5,116.4z"/>
			<path class="st1" d="M444.2,126.6V74.8h9.8v51.8C454,126.6,444.2,126.6,444.2,126.6z M479.2,126.6V95.3c0-3.9-1.2-6.9-3.5-9.1
				c-2.4-2.2-5.3-3.3-8.9-3.3c-2.4,0-4.5,0.5-6.4,1.5s-3.4,2.4-4.6,4.3c-1.2,1.8-1.7,4-1.7,6.7l-4-2.1c0-3.9,0.9-7.3,2.6-10.2
				c1.7-2.9,4.1-5.2,7-6.8c3-1.6,6.3-2.5,10-2.5c3.6,0,6.9,0.8,9.9,2.4c2.9,1.6,5.3,3.9,7,6.8s2.6,6.4,2.6,10.4v33.4h-10V126.6z
				 M514.2,126.6V95.3c0-3.9-1.2-6.9-3.5-9.1c-2.4-2.2-5.3-3.3-8.8-3.3c-2.4,0-4.6,0.5-6.5,1.5s-3.5,2.4-4.6,4.3
				c-1.2,1.8-1.7,4-1.7,6.7l-5.6-2.1c0.2-4,1.3-7.4,3.2-10.3c1.9-2.9,4.4-5.1,7.5-6.8c3.1-1.6,6.4-2.5,10-2.5
				c3.8,0,7.2,0.8,10.1,2.4c3,1.6,5.4,3.9,7.1,6.8c1.8,2.9,2.7,6.4,2.7,10.5v33.3L514.2,126.6L514.2,126.6z"/>
			<path class="st1" d="M559.4,127.6c-4.8,0-9.1-1.2-12.9-3.5c-3.8-2.4-6.8-5.6-9.1-9.7c-2.2-4.1-3.3-8.7-3.3-13.7
				c0-5.1,1.1-9.7,3.3-13.7c2.2-4.1,5.2-7.3,9.1-9.7c3.8-2.4,8.1-3.6,12.9-3.6c3.9,0,7.4,0.8,10.5,2.5c3.1,1.6,5.6,3.9,7.5,6.8
				s2.9,6.2,3.2,10v15.6c-0.2,3.7-1.3,7-3.1,9.9c-1.9,2.9-4.3,5.2-7.5,6.8C566.9,126.8,563.4,127.6,559.4,127.6z M561.1,118.4
				c4.9,0,8.8-1.7,11.8-5s4.5-7.5,4.5-12.7c0-3.5-0.7-6.6-2.1-9.3c-1.4-2.7-3.3-4.8-5.7-6.3s-5.3-2.2-8.6-2.2s-6.2,0.8-8.7,2.3
				s-4.5,3.6-5.9,6.3c-1.4,2.7-2.1,5.7-2.1,9.1c0,3.5,0.7,6.6,2.1,9.2c1.4,2.7,3.4,4.7,5.9,6.3C554.9,117.6,557.8,118.4,561.1,118.4
				z M576.7,126.6v-14l1.9-12.7l-1.9-12.5V74.8h9.9v51.8C586.6,126.6,576.7,126.6,576.7,126.6z"/>
			<path class="st1" d="M624.5,127.6c-5.1,0-9.7-1.2-13.8-3.6s-7.3-5.7-9.7-9.8c-2.4-4.1-3.5-8.7-3.5-13.7c0-5.1,1.2-9.7,3.5-13.7
				c2.4-4.1,5.6-7.3,9.7-9.6c4.1-2.4,8.7-3.5,13.8-3.5c4,0,7.7,0.7,11.1,2.2c3.4,1.5,6.4,3.7,8.8,6.5l-6.5,6.5
				c-1.6-1.9-3.6-3.3-5.9-4.3c-2.3-1-4.8-1.5-7.5-1.5c-3.3,0-6.2,0.7-8.7,2.2s-4.5,3.5-6,6.2c-1.5,2.6-2.2,5.6-2.2,9.1
				c0,3.4,0.7,6.4,2.2,9.1c1.5,2.6,3.5,4.7,6,6.2s5.5,2.3,8.7,2.3c2.8,0,5.3-0.5,7.6-1.5s4.3-2.4,5.9-4.3l6.4,6.5
				c-2.4,2.8-5.3,4.9-8.8,6.4C632.3,126.9,628.5,127.6,624.5,127.6z"/>
			<path class="st1" d="M659.2,64.4c-1.8,0-3.3-0.6-4.5-1.8s-1.7-2.7-1.7-4.5c0-1.7,0.6-3.2,1.7-4.4c1.2-1.2,2.7-1.8,4.5-1.8
				s3.3,0.6,4.5,1.8s1.7,2.7,1.7,4.4c0,1.8-0.6,3.3-1.7,4.5C662.5,63.8,661,64.4,659.2,64.4z M654.2,126.6V74.8h9.9v51.8
				C664.1,126.6,654.2,126.6,654.2,126.6z"/>
			<path class="st1" d="M702.6,127.6c-5.2,0-9.9-1.2-14-3.5c-4.1-2.4-7.4-5.6-9.8-9.7c-2.4-4.1-3.6-8.7-3.6-13.8
				c0-5.1,1.2-9.7,3.5-13.7c2.4-4.1,5.6-7.3,9.6-9.6c4-2.4,8.6-3.5,13.6-3.5c4.7,0,8.9,1.1,12.6,3.3c3.7,2.2,6.6,5.2,8.7,9.1
				c2.1,3.9,3.1,8.3,3.1,13.2c0,0.7,0,1.5-0.1,2.3s-0.2,1.8-0.4,2.8h-43.7v-8.2h38.5l-3.6,3.2c0-3.5-0.6-6.5-1.9-8.9
				c-1.2-2.4-3-4.3-5.2-5.7c-2.3-1.3-5-2-8.2-2c-3.3,0-6.3,0.7-8.8,2.2s-4.5,3.5-5.9,6.1s-2.1,5.7-2.1,9.3c0,3.6,0.7,6.8,2.2,9.5
				s3.5,4.8,6.2,6.3s5.8,2.2,9.3,2.2c2.9,0,5.6-0.5,8-1.5s4.5-2.5,6.3-4.6l6.3,6.4c-2.5,2.9-5.6,5.1-9.2,6.7
				C710.5,126.9,706.7,127.6,702.6,127.6z"/>
		</g>
	</g>
</g>
</svg>
