<svg xmlns="http://www.w3.org/2000/svg" id="Calque_1" data-name="Calque 1" viewBox="0 0 800 800"><defs><style>.cls-1{fill:#fff;}.cls-2{fill:#dedee0;}.cls-3{fill:#a60303;}</style></defs><title>ALL_LEADERS_INITIATIVE_R_BRIGHT_LOGO</title><path class="cls-1" d="M166.44,365.17,164.19,386l10.33,5.73-1.18,10.9-49.16-27.76L125,367l53.89-16-1.17,10.82Zm-8.51,2.05-19.35,5.34,17.76,9.35Z"></path><path class="cls-1" d="M143.43,296.7l39.9,16.39,6.09-14.81,8.05,3.31-9.93,24.16L139.59,306Z"></path><path class="cls-1" d="M175.6,238.83l34.87,25.38,9.43-12.95,7,5.13L211.57,277.5,169.66,247Z"></path><path class="cls-1" d="M260.61,161.89l21.61,37.33,13.85-8,4.36,7.54-22.61,13.07-25.95-44.87Z"></path><path class="cls-1" d="M342.31,139l-18,5,3.1,11.17,17.24-4.79,2.33,8.39-17.23,4.79,3.79,13.63,18-5,2.33,8.39-27.72,7.7-13.89-50L340,130.57Z"></path><path class="cls-1" d="M475.65,135.13c6.91,2.16,12.68,4.79,16.89,10.59,4.59,6.41,5.82,14.7,3.24,22.93s-8.23,14.28-16.2,16.84c-7.06,2.26-12.69,1.23-19.58-.93l-12.77-4,15.52-49.48Zm-16.17,40.15,3,.92c2.45.77,7.84,2.3,13.12.53,4.82-1.58,8.62-5.93,10.27-11.2s1.05-10.91-1.94-15.11-7.88-6-11.14-7.08l-3-.93Z"></path><path class="cls-1" d="M562.11,187.79l-15.46-10.45-6.48,9.6L555,197l-4.87,7.21-14.82-10-7.92,11.72,15.46,10.44L538,223.53l-23.83-16.1,29-43L567,180.57Z"></path><path class="cls-1" d="M610,221.77c4.61,5.46,5.53,9.46,5.55,12.6a14.76,14.76,0,0,1-5.6,11.44c-3.86,3.26-8.55,4.57-13.23,3.24a14.31,14.31,0,0,1-5.38-2.89L585,272.6,576.9,263l7-24-.8-.95-15.92,13.43-6.51-7.72,39.6-33.43Zm-21.39,11.65,1.86,2.19c1.24,1.49,6.58,7.45,12.41,2.54s.82-11.07-.38-12.49l-2-2.32Z"></path><path class="cls-1" d="M645.66,303.33a10.11,10.11,0,0,0,.62-9.54c-2.2-5-6-5.15-8.44-4.08a4.37,4.37,0,0,0-2.54,2.91c-.56,1.61-.43,3.42-.18,6.88.36,4.26.62,8.31-.51,11.71-1,3-3.32,6.32-8.16,8.46-9.23,4.09-18.52.21-22.87-9.6-3.87-8.74-.81-16.22,1.72-20.32l8.43,3.5A12.16,12.16,0,0,0,611.81,306c1.86,4.19,5.81,6.19,9.78,4.42a6,6,0,0,0,3.45-3.74c.85-2.49.52-5.75.24-8.86a25,25,0,0,1,.63-9.71,12.1,12.1,0,0,1,7.14-7.68c7-3.08,16-1.47,20.67,9.05a19.92,19.92,0,0,1,.41,15.89Z"></path><path class="cls-1" d="M675.65,416.4l-51.78-2.54.18-3.41L675.82,413Z"></path><path class="cls-1" d="M616.63,463.43l48.56,19.73-58.61,23.19,41.71,16.95L647,526.47l-49.28-20,58.6-23.2-41-16.65Z"></path><path class="cls-1" d="M606.45,584.24l-39-34.13,2.26-2.57,39,34.13Z"></path><path class="cls-1" d="M547.24,631l-26.59-40.85,2.86-1.86L550.1,629.1l11.27-7.34,1.7,2.6L537.66,640.9l-1.7-2.6Z"></path><path class="cls-1" d="M480.19,665.32,464.82,615.8l3.26-1,15.38,49.52Z"></path><path class="cls-1" d="M388.6,642.52l22.08,0,6.9-17h3.73l-21.79,53.44-21.6-53.38h3.74Zm1.25,3.11,9.74,24.55,9.85-24.58Z"></path><path class="cls-1" d="M312.75,660.07,328,613.77l3.25,1.06L316,661.14l12.78,4.2-1,3L299,658.82l1-3Z"></path><path class="cls-1" d="M244.07,629.39l28.91-43,2.84,1.9-28.91,43Z"></path><path class="cls-1" d="M195.88,588.31l24.34-39.85-43.45,16.71-2.37-2.87,53.37-20.08-29.52,49Z"></path><path class="cls-1" d="M139,484.29l7.54,20.08,17.6-6.62-7.38-19.64,2.91-1.09L167,496.66l22.19-8.34-7.54-20.07,2.91-1.1,8.74,23.28-48.52,18.23-8.74-23.28Z"></path><polygon class="cls-2" points="531.48 310.17 538.48 326.5 540.61 325.85 533.45 309.09 488.14 264.78 462.03 254.29 461.51 256.45 486.75 266.53 531.48 310.17"></polygon><polygon class="cls-2" points="548.85 345.14 546.97 346.3 556.11 367.61 556.89 430.1 548.83 450.27 550.78 451.32 559.05 430.73 559.13 430.52 558.35 367.36 548.85 345.14"></polygon><polygon class="cls-2" points="249.99 456.48 251.87 455.32 242.73 434 241.95 371.51 250.01 351.35 248.05 350.3 239.79 370.89 239.71 371.1 240.49 434.25 249.99 456.48"></polygon><polygon class="cls-2" points="267.36 491.44 260.36 475.12 258.23 475.76 265.39 492.53 310.69 536.84 336.81 547.32 337.32 545.17 312.09 535.08 267.36 491.44"></polygon><polygon class="cls-2" points="255.06 338.71 265.15 313.48 308.79 268.75 325.11 261.75 324.46 259.62 307.7 266.78 263.39 312.08 252.91 338.2 255.06 338.71"></polygon><polygon class="cls-2" points="366.22 244.12 428.71 243.34 448.88 251.4 449.93 249.44 429.34 241.17 429.13 241.09 365.98 241.88 343.75 251.38 344.91 253.26 366.22 244.12"></polygon><polygon class="cls-2" points="455.18 253.92 455.18 253.92 455.96 251.86 455.96 251.86 455.18 253.92"></polygon><polygon class="cls-2" points="543.78 462.9 533.69 488.13 490.05 532.87 473.73 539.87 474.38 542 491.14 534.84 535.45 489.54 545.93 463.42 543.78 462.9"></polygon><polygon class="cls-2" points="432.61 557.5 370.12 558.28 349.96 550.22 348.91 552.18 369.5 560.44 369.71 560.52 432.86 559.73 455.09 550.24 453.93 548.36 432.61 557.5"></polygon><polygon class="cls-2" points="326.72 299.09 326.73 299.08 326.73 299.08 326.72 299.09"></polygon><path class="cls-2" d="M485.88,316.72c10.32,9.85,12.95,12.35,13.77,13,.36.64,1.67,3.52,3.42,7.43l2.17-.66c-3.68-8.25-3.81-8.34-4.09-8.42-.56-.45-7.26-6.84-13.73-13-18.73-17.87-21.08-20.11-21.85-20.38h0c-.53-.15-5.84-2.2-12.08-4.61l-.52,2.2c8.39,3.24,11,4.23,11.83,4.5C466.18,297.93,477.53,308.76,485.88,316.72Z"></path><path class="cls-2" d="M434.65,517c-5.42,2.4-7.3,3.25-8,3.59-1.78.18-17.75.55-29.49.82-13.77.31-17.34.4-18.41.48-1.44-.43-12.29-4.61-22.15-8.43l-.79,2.1c19.67,7.62,22.28,8.61,22.85,8.61a.31.31,0,0,0,.17-.05c.69-.07,9.68-.28,18.38-.48,30.08-.68,30.09-.7,30.37-1s3.73-1.7,8.22-3.68Z"></path><path class="cls-2" d="M510.1,448.72c-5.05,13-6.35,16.43-6.69,17.47-1.1,1.36-11.92,12.7-19.87,21-9.9,10.37-12.39,13-13.08,13.82-.66.36-3.54,1.67-7.44,3.42l.66,2.17c8.25-3.68,8.34-3.81,8.43-4.09.44-.57,6.85-7.28,13.05-13.77,17.82-18.68,20.07-21,20.34-21.81h0c.2-.67,3.5-9.19,6.69-17.43.72-1.85,1.38-3.54,2-5.15l-2.09-.8C511.41,445.34,510.74,447.08,510.1,448.72Z"></path><path class="cls-2" d="M521.25,372.6c-.21-.37-1.73-3.79-3.69-8.21l-1.93,1.18c2.41,5.44,3.25,7.31,3.59,8,.19,1.8.55,17.76.82,29.48.31,13.75.4,17.34.49,18.41-.27.91-2,5.59-4.28,11.39l2,1.07c3.89-10.11,4.53-11.94,4.5-12.54h0c-.07-.68-.28-9.68-.47-18.38C521.59,372.9,521.57,372.88,521.25,372.6Z"></path><path class="cls-2" d="M277.59,429c.21.38,1.73,3.79,3.69,8.22L283.2,436c-2.4-5.42-3.24-7.3-3.58-8-.19-1.78-.55-17.64-.81-29.29-.32-13.94-.41-17.55-.5-18.62.27-.91,2.05-5.59,4.27-11.38l-2-1.06c-3.9,10.12-4.53,11.94-4.5,12.53h0c.08.69.28,9.79.48,18.58C277.25,428.72,277.26,428.74,277.59,429Z"></path><path class="cls-2" d="M313,484.89c-10.32-9.85-12.95-12.35-13.77-13-.36-.65-1.67-3.53-3.42-7.44l-2.18.66c3.69,8.26,3.82,8.34,4.1,8.43.56.44,7.25,6.83,13.73,13,18.72,17.87,21.08,20.11,21.85,20.38h0c.52.16,5.84,2.2,12.07,4.62l.53-2.2c-8.39-3.25-11-4.24-11.84-4.51C332.66,503.69,321.31,492.85,313,484.89Z"></path><path class="cls-2" d="M364.18,284.59c5.43-2.4,7.31-3.24,8-3.58,1.79-.19,17.75-.56,29.49-.82,13.76-.32,17.34-.41,18.41-.49,1.44.43,12.29,4.61,22.14,8.43L443,286c-22.66-8.78-22.68-8.73-23-8.57-.68.08-9.68.28-18.37.48-30.08.68-30.1.7-30.37,1s-3.79,1.73-8.22,3.69Z"></path><path class="cls-2" d="M288.7,353c5.08-13.12,6.39-16.52,6.72-17.56,1.1-1.37,11.93-12.71,19.88-21,9.88-10.36,12.39-13,13.08-13.82.65-.35,3.53-1.67,7.43-3.41l-.65-2.17c-6.84,3.06-8.1,3.72-8.43,4.09-.46.57-6.86,7.28-13.05,13.77-17.83,18.67-20.08,21-20.35,21.81h0c-.19.68-3.51,9.25-6.72,17.53-.71,1.81-1.35,3.47-2,5.06l2.09.79Z"></path><path class="cls-2" d="M466.49,348.26l2.55-.77c-.79-.58-5.45-4.84-9.6-8.64-9.1-8.34-12.79-11.71-14.45-13.05l-.6,2.5c2.91,2.46,9.1,8.13,13.54,12.2C462.72,344.88,465.16,347.1,466.49,348.26Z"></path><path class="cls-2" d="M483.49,399.86c.41,9.66.54,12.15.68,13-.07.36-.34,1.24-.73,2.41l2,1.08c1.13-3.36,1.05-3.58.92-3.87-.14-.7-.4-6.79-.65-12.69-.31-7.45-.53-12.22-.71-15.35l-2.17,1.34C483.07,390,483.3,395.53,483.49,399.86Z"></path><path class="cls-2" d="M384.36,317.39c4.25-.23,9.8-.47,14.14-.65,9.62-.41,12.11-.54,12.94-.68,1.45.26,10.86,3.68,17.79,6.21l.8-2.1c-18.27-6.65-18.46-6.55-19-6.31-.69.13-6.77.39-12.65.64-7.47.32-12.26.54-15.39.72Z"></path><path class="cls-2" d="M321.33,369.75c3.36-9.23,4.21-11.61,4.39-12.44.84-1.31,8.35-9.52,13.36-15,4.39-4.8,6.63-7.26,7.8-8.6l-.78-2.55c-.61.83-4.88,5.5-8.68,9.63-13.91,15.2-13.91,15.43-13.88,16-.14.71-2.36,6.79-4.32,12.16l-.44,1.21,2.1.79Z"></path><path class="cls-2" d="M314.67,388.78a24.35,24.35,0,0,1,.73-2.41l-2-1.08c-1.14,3.37-1.06,3.58-.92,3.87.13.7.39,6.8.64,12.69.32,7.45.54,12.23.72,15.35l2.17-1.34c-.23-4.24-.47-9.78-.65-14.11C314.94,392.1,314.81,389.6,314.67,388.78Z"></path><path class="cls-2" d="M332.35,453.35l-2.56.77c.77.57,5.47,4.86,9.64,8.68,9.07,8.31,12.76,11.66,14.42,13l.59-2.5c-2.9-2.46-9.07-8.1-13.5-12.16C336.13,456.75,333.68,454.52,332.35,453.35Z"></path><path class="cls-2" d="M414.48,484.23c-4.26.23-9.81.46-14.14.65-9.62.41-12.11.54-12.94.67-1.45-.25-10.86-3.67-17.8-6.2l-.79,2.09c15.11,5.51,17.86,6.39,18.64,6.39a.7.7,0,0,0,.33-.07c.69-.14,6.77-.4,12.65-.65,7.47-.31,12.25-.54,15.38-.71Z"></path><path class="cls-2" d="M477.51,431.86c-3.37,9.23-4.21,11.61-4.4,12.44-.83,1.32-8.34,9.52-13.35,15-4.4,4.8-6.63,7.26-7.8,8.59l.78,2.56c.56-.78,4.85-5.47,8.67-9.64,13.92-15.2,13.91-15.43,13.88-16,.15-.71,2.36-6.79,4.32-12.15l.44-1.21-2.09-.8Z"></path><polygon class="cls-1" points="376.77 367.71 360.83 314.98 389.69 361.9 395.87 350.36 324.72 234.69 364.03 364.68 376.77 367.71"></polygon><polygon class="cls-1" points="435.55 365.42 432.51 378.16 485.25 362.21 438.32 391.08 449.87 397.26 565.54 326.11 435.55 365.42"></polygon><polygon class="cls-1" points="422.07 433.9 438.01 486.64 409.15 439.71 402.96 451.26 474.11 566.92 434.81 436.94 422.07 433.9"></polygon><polygon class="cls-1" points="313.59 439.4 360.51 410.54 348.97 404.35 233.3 475.5 363.29 436.2 366.32 423.45 313.59 439.4"></polygon><path class="cls-3" d="M385.47,369.78,400,342.61a58.34,58.34,0,0,0-44.54,20Z"></path><path class="cls-3" d="M437.59,356.87l-7.15,30,27.18,14.55A58.32,58.32,0,0,0,437.59,356.87Z"></path><path class="cls-3" d="M341.22,400.2a58.31,58.31,0,0,0,20,44.54l7.14-30Z"></path><path class="cls-3" d="M413.37,431.83,398.81,459a58.34,58.34,0,0,0,44.55-20Z"></path><path class="cls-3" d="M388.18,176.46l11.28-28.18,11.3,28.22q5.69.3,11.29.87l-22.59-56.26L376.9,177.27C380.63,176.91,384.39,176.63,388.18,176.46Z"></path><polygon class="cls-1" points="385.47 369.78 203.48 326.42 399.42 400.81 473.8 204.87 385.47 369.78"></polygon><polygon class="cls-1" points="413.37 431.83 595.36 475.19 399.42 400.81 325.03 596.75 413.37 431.83"></polygon></svg>